<svg width="99" height="36" viewBox="0 0 99 36" fill="none" xmlns="http://www.w3.org/2000/svg">
<path d="M0.652344 25.9082C0.652344 25.0059 0.628906 24.1035 0.582031 23.2012C0.546875 22.2988 0.505859 21.3965 0.458984 20.4941C0.412109 19.5801 0.365234 18.666 0.318359 17.752C0.283203 16.8262 0.265625 15.8887 0.265625 14.9395C0.265625 13.9434 0.294922 12.9355 0.353516 11.916C0.423828 10.8848 0.552734 9.89453 0.740234 8.94531C0.927734 7.98437 1.18555 7.08789 1.51367 6.25586C1.8418 5.41211 2.26953 4.67969 2.79688 4.05859C3.32422 3.4375 3.96875 2.94531 4.73047 2.58203C5.49219 2.21875 6.38867 2.03711 7.41992 2.03711C8.4043 2.03711 9.25977 2.19531 9.98633 2.51172C10.7129 2.81641 11.3281 3.23828 11.832 3.77734C12.3477 4.31641 12.7637 4.94922 13.0801 5.67578C13.4082 6.40234 13.6602 7.1875 13.8359 8.03125C14.0234 8.875 14.1523 9.75391 14.2227 10.668C14.293 11.582 14.3281 12.4902 14.3281 13.3926C14.3281 13.627 14.3223 13.832 14.3105 14.0078C14.3105 14.1836 14.3047 14.377 14.293 14.5879C14.293 14.7871 14.2812 15.0273 14.2578 15.3086C14.2461 15.5898 14.2285 15.959 14.2051 16.416C14.1816 16.8613 14.1523 17.4121 14.1172 18.0684C14.0938 18.7246 14.0645 19.5332 14.0293 20.4941C13.9941 21.4551 13.9531 22.5918 13.9062 23.9043C13.8594 25.2051 13.8125 26.7285 13.7656 28.4746L8.50977 28.2812C8.70898 26.9453 8.88477 25.6094 9.03711 24.2734C9.20117 22.9258 9.33594 21.6719 9.44141 20.5117C8.53906 20.4414 7.70117 20.4062 6.92773 20.4062C6.5293 20.4062 6.1543 20.4121 5.80273 20.4238C5.45117 20.4355 5.14062 20.4531 4.87109 20.4766C4.90625 21.0859 4.94727 21.7305 4.99414 22.4102C5.04102 23.0898 5.09375 23.7754 5.15234 24.4668C5.21094 25.1582 5.27539 25.8438 5.3457 26.5234C5.41602 27.1914 5.49805 27.8301 5.5918 28.4395L0.617188 28.5801C0.640625 28.1465 0.652344 27.707 0.652344 27.2617C0.652344 26.8047 0.652344 26.3535 0.652344 25.9082ZM4.66016 16.7676C5.01172 16.791 5.35742 16.8027 5.69727 16.8027C6.03711 16.8027 6.37109 16.8027 6.69922 16.8027C7.95312 16.8027 8.96094 16.7676 9.72266 16.6973C9.79297 15.8652 9.86328 15.0273 9.93359 14.1836C10.0156 13.3398 10.0566 12.4375 10.0566 11.4766C10.0566 9.44922 9.8457 7.9082 9.42383 6.85352C9.01367 5.78711 8.4043 5.25391 7.5957 5.25391C7.15039 5.25391 6.74023 5.41211 6.36523 5.72852C5.99023 6.04492 5.66211 6.53711 5.38086 7.20508C5.11133 7.86133 4.89453 8.69336 4.73047 9.70117C4.57812 10.709 4.50195 11.8984 4.50195 13.2695C4.50195 13.75 4.51367 14.2656 4.53711 14.8164C4.57227 15.3555 4.61328 16.0059 4.66016 16.7676ZM16.3145 35.0488C16.4551 33.3613 16.5723 31.7031 16.666 30.0742C16.7715 28.4453 16.8594 26.834 16.9297 25.2402C17 23.6348 17.0527 22.0352 17.0879 20.4414C17.123 18.8477 17.1406 17.2363 17.1406 15.6074C17.1406 13.4395 17.1055 11.2012 17.0352 8.89258L21.0254 8.83984L20.9199 10.791C21.4238 9.80664 22.0098 9.03906 22.6777 8.48828C23.3457 7.9375 24.043 7.66211 24.7695 7.66211C25.6484 7.66211 26.4277 7.85547 27.1074 8.24219C27.7988 8.61719 28.3789 9.21484 28.8477 10.0352C29.3164 10.8555 29.6738 11.9043 29.9199 13.1816C30.166 14.4473 30.2891 15.9766 30.2891 17.7695C30.2891 19.8203 30.1191 21.5488 29.7793 22.9551C29.4395 24.3496 28.9883 25.4805 28.4258 26.3477C27.8633 27.2031 27.2246 27.8184 26.5098 28.1934C25.8066 28.5684 25.0859 28.7559 24.3477 28.7559C23.9609 28.7207 23.5625 28.627 23.1523 28.4746C22.8008 28.3457 22.4082 28.1406 21.9746 27.8594C21.5527 27.5664 21.1309 27.1562 20.709 26.6289C20.7324 28.0234 20.7676 29.4238 20.8145 30.8301C20.8613 32.2363 20.9316 33.6719 21.0254 35.1367L16.3145 35.0488ZM20.6738 23.0957C20.791 23.3184 20.9316 23.5586 21.0957 23.8164C21.2598 24.0625 21.4355 24.2969 21.623 24.5195C21.8223 24.7305 22.0332 24.9062 22.2559 25.0469C22.4785 25.1875 22.7188 25.2578 22.9766 25.2578C23.3281 25.2578 23.6738 25.1172 24.0137 24.8359C24.3652 24.543 24.6758 24.0918 24.9453 23.4824C25.2148 22.8613 25.4316 22.0645 25.5957 21.0918C25.7715 20.1074 25.8594 18.9297 25.8594 17.5586C25.8594 16.4336 25.8008 15.4668 25.6836 14.6582C25.5781 13.8379 25.4316 13.1641 25.2441 12.6367C25.0566 12.0977 24.834 11.7051 24.5762 11.459C24.3184 11.2012 24.0488 11.0723 23.7676 11.0723C23.5332 11.0723 23.3047 11.1602 23.082 11.3359C22.8594 11.5 22.6426 11.7168 22.4316 11.9863C22.2324 12.2441 22.0449 12.543 21.8691 12.8828C21.6934 13.2109 21.5293 13.5391 21.377 13.8672C21.2363 14.1836 21.1133 14.4824 21.0078 14.7637C20.9023 15.0449 20.8262 15.2676 20.7793 15.4316C20.7441 16.6855 20.7148 17.916 20.6914 19.123C20.6797 20.3301 20.6738 21.5488 20.6738 22.7793V23.0957ZM31.8887 35.0488C32.0293 33.3613 32.1465 31.7031 32.2402 30.0742C32.3457 28.4453 32.4336 26.834 32.5039 25.2402C32.5742 23.6348 32.627 22.0352 32.6621 20.4414C32.6973 18.8477 32.7148 17.2363 32.7148 15.6074C32.7148 13.4395 32.6797 11.2012 32.6094 8.89258L36.5996 8.83984L36.4941 10.791C36.998 9.80664 37.584 9.03906 38.252 8.48828C38.9199 7.9375 39.6172 7.66211 40.3438 7.66211C41.2227 7.66211 42.002 7.85547 42.6816 8.24219C43.373 8.61719 43.9531 9.21484 44.4219 10.0352C44.8906 10.8555 45.248 11.9043 45.4941 13.1816C45.7402 14.4473 45.8633 15.9766 45.8633 17.7695C45.8633 19.8203 45.6934 21.5488 45.3535 22.9551C45.0137 24.3496 44.5625 25.4805 44 26.3477C43.4375 27.2031 42.7988 27.8184 42.084 28.1934C41.3809 28.5684 40.6602 28.7559 39.9219 28.7559C39.5352 28.7207 39.1367 28.627 38.7266 28.4746C38.375 28.3457 37.9824 28.1406 37.5488 27.8594C37.127 27.5664 36.7051 27.1562 36.2832 26.6289C36.3066 28.0234 36.3418 29.4238 36.3887 30.8301C36.4355 32.2363 36.5059 33.6719 36.5996 35.1367L31.8887 35.0488ZM36.248 23.0957C36.3652 23.3184 36.5059 23.5586 36.6699 23.8164C36.834 24.0625 37.0098 24.2969 37.1973 24.5195C37.3965 24.7305 37.6074 24.9062 37.8301 25.0469C38.0527 25.1875 38.293 25.2578 38.5508 25.2578C38.9023 25.2578 39.248 25.1172 39.5879 24.8359C39.9395 24.543 40.25 24.0918 40.5195 23.4824C40.7891 22.8613 41.0059 22.0645 41.1699 21.0918C41.3457 20.1074 41.4336 18.9297 41.4336 17.5586C41.4336 16.4336 41.375 15.4668 41.2578 14.6582C41.1523 13.8379 41.0059 13.1641 40.8184 12.6367C40.6309 12.0977 40.4082 11.7051 40.1504 11.459C39.8926 11.2012 39.623 11.0723 39.3418 11.0723C39.1074 11.0723 38.8789 11.1602 38.6562 11.3359C38.4336 11.5 38.2168 11.7168 38.0059 11.9863C37.8066 12.2441 37.6191 12.543 37.4434 12.8828C37.2676 13.2109 37.1035 13.5391 36.9512 13.8672C36.8105 14.1836 36.6875 14.4824 36.582 14.7637C36.4766 15.0449 36.4004 15.2676 36.3535 15.4316C36.3184 16.6855 36.2891 17.916 36.2656 19.123C36.2539 20.3301 36.248 21.5488 36.248 22.7793V23.0957ZM62.1934 13.3398C62.1699 13.375 62.1523 13.4629 62.1406 13.6035C62.1289 13.7441 62.1172 13.9199 62.1055 14.1309C62.1055 14.3418 62.1055 14.582 62.1055 14.8516C62.1055 15.1094 62.1055 15.3789 62.1055 15.6602C62.1055 15.9414 62.1055 16.2285 62.1055 16.5215C62.1055 16.8027 62.1055 17.0664 62.1055 17.3125C62.1172 17.5586 62.1289 17.7812 62.1406 17.9805C62.1523 18.168 62.1699 18.3145 62.1934 18.4199C60.5527 18.3262 58.8008 18.2617 56.9375 18.2266C55.0742 18.1914 53.1758 18.1738 51.2422 18.1738H48.2188C48.2422 17.7754 48.2656 17.3418 48.2891 16.873C48.3125 16.4043 48.3242 15.9121 48.3242 15.3965C48.3242 14.752 48.2891 14.0664 48.2188 13.3398C48.7461 13.4219 49.3145 13.4922 49.9238 13.5508C50.5449 13.6094 51.1836 13.6621 51.8398 13.709C52.5078 13.7441 53.1875 13.7734 53.8789 13.7969C54.5703 13.8086 55.25 13.8145 55.918 13.8145C56.5977 13.8145 57.2539 13.8086 57.8867 13.7969C58.5195 13.7734 59.1055 13.7441 59.6445 13.709C60.1953 13.6621 60.6875 13.6094 61.1211 13.5508C61.5547 13.4922 61.9121 13.4219 62.1934 13.3398ZM69.4883 0.964844C69.418 2.39453 69.3535 3.71875 69.2949 4.9375C69.2363 6.15625 69.1836 7.30469 69.1367 8.38281C69.1016 9.46094 69.0723 10.4863 69.0488 11.459C69.0254 12.4316 69.002 13.3926 68.9785 14.3418C68.9668 15.291 68.9551 16.2461 68.9434 17.207C68.9434 18.168 68.9434 19.1758 68.9434 20.2305C68.9434 21.4023 68.9434 22.6562 68.9434 23.9922C68.9434 25.3281 68.9551 26.8105 68.9785 28.4395L64.9883 28.3516C65.0586 26.582 65.1055 24.8418 65.1289 23.1309C65.1523 21.4082 65.1641 19.6445 65.1641 17.8398C65.1641 16.6328 65.1582 15.3965 65.1465 14.1309C65.1348 12.8535 65.1172 11.5234 65.0938 10.1406C65.0703 8.74609 65.041 7.28125 65.0059 5.74609C64.9824 4.21094 64.9531 2.58203 64.918 0.859375L69.4883 0.964844ZM84.2188 24.2207C84.2188 24.9121 84.0605 25.5625 83.7441 26.1719C83.4277 26.7812 83 27.3086 82.4609 27.7539C81.9219 28.1992 81.2891 28.5508 80.5625 28.8086C79.8359 29.0664 79.0625 29.1953 78.2422 29.1953C77.6914 29.1953 77.1348 29.1191 76.5723 28.9668C76.0098 28.8145 75.4707 28.5625 74.9551 28.2109C74.4395 27.8594 73.9531 27.3965 73.4961 26.8223C73.0391 26.248 72.6406 25.5449 72.3008 24.7129C71.9727 23.8809 71.709 22.9082 71.5098 21.7949C71.3223 20.6699 71.2285 19.3809 71.2285 17.9277C71.2285 16.5566 71.3223 15.3438 71.5098 14.2891C71.709 13.2344 71.9727 12.3145 72.3008 11.5293C72.6406 10.7441 73.0332 10.0879 73.4785 9.56055C73.9238 9.02148 74.3984 8.58789 74.9023 8.25977C75.418 7.91992 75.9453 7.67969 76.4844 7.53906C77.0352 7.39844 77.5742 7.32812 78.1016 7.32812C78.8867 7.32812 79.6309 7.45703 80.334 7.71484C81.0371 7.96094 81.6523 8.33008 82.1797 8.82227C82.707 9.31445 83.123 9.92383 83.4277 10.6504C83.7441 11.3652 83.9023 12.1914 83.9023 13.1289C83.9023 13.9727 83.7266 14.8281 83.375 15.6953C83.0352 16.5508 82.5254 17.3652 81.8457 18.1387C81.166 18.9004 80.3223 19.5977 79.3145 20.2305C78.3184 20.8516 77.1699 21.3438 75.8691 21.707C75.9395 22.4336 76.0391 23.0957 76.168 23.6934C76.3086 24.291 76.4785 24.8008 76.6777 25.2227C76.8887 25.6445 77.1289 25.9727 77.3984 26.207C77.6797 26.4414 78.002 26.5586 78.3652 26.5586C78.5996 26.5469 78.8223 26.5059 79.0332 26.4355C79.2207 26.377 79.4082 26.2832 79.5957 26.1543C79.7949 26.0254 79.959 25.8379 80.0879 25.5918C79.7832 25.4512 79.5488 25.2695 79.3848 25.0469C79.2207 24.8242 79.0977 24.6133 79.0156 24.4141C78.9219 24.1797 78.8691 23.9336 78.8574 23.6758C78.8574 23.1133 78.9688 22.6562 79.1914 22.3047C79.4141 21.9531 79.6777 21.6777 79.9824 21.4785C80.2871 21.2793 80.5977 21.1445 80.9141 21.0742C81.2305 20.9922 81.4824 20.9512 81.6699 20.9512C81.8691 20.9512 82.1094 20.9922 82.3906 21.0742C82.6836 21.1562 82.9648 21.3145 83.2344 21.5488C83.5039 21.7832 83.7324 22.1172 83.9199 22.5508C84.1191 22.9727 84.2188 23.5293 84.2188 24.2207ZM79.877 13.1641C79.877 12.7422 79.8359 12.3438 79.7539 11.9688C79.6836 11.582 79.5723 11.248 79.4199 10.9668C79.2793 10.6855 79.0977 10.4629 78.875 10.2988C78.6641 10.123 78.418 10.0352 78.1367 10.0352C77.6562 10.0352 77.2637 10.2578 76.959 10.7031C76.6543 11.1367 76.4082 11.7168 76.2207 12.4434C76.0332 13.1699 75.9043 14.0078 75.834 14.957C75.7637 15.9062 75.7285 16.8965 75.7285 17.9277V19.2109C76.3262 18.8945 76.877 18.5195 77.3809 18.0859C77.8965 17.6523 78.3359 17.1777 78.6992 16.6621C79.0742 16.1348 79.3613 15.5781 79.5605 14.9922C79.7715 14.4062 79.877 13.7969 79.877 13.1641ZM98.668 24.2207C98.668 24.9121 98.5098 25.5625 98.1934 26.1719C97.877 26.7812 97.4492 27.3086 96.9102 27.7539C96.3711 28.1992 95.7383 28.5508 95.0117 28.8086C94.2852 29.0664 93.5117 29.1953 92.6914 29.1953C92.1406 29.1953 91.584 29.1191 91.0215 28.9668C90.459 28.8145 89.9199 28.5625 89.4043 28.2109C88.8887 27.8594 88.4023 27.3965 87.9453 26.8223C87.4883 26.248 87.0898 25.5449 86.75 24.7129C86.4219 23.8809 86.1582 22.9082 85.959 21.7949C85.7715 20.6699 85.6777 19.3809 85.6777 17.9277C85.6777 16.5566 85.7715 15.3438 85.959 14.2891C86.1582 13.2344 86.4219 12.3145 86.75 11.5293C87.0898 10.7441 87.4824 10.0879 87.9277 9.56055C88.373 9.02148 88.8477 8.58789 89.3516 8.25977C89.8672 7.91992 90.3945 7.67969 90.9336 7.53906C91.4844 7.39844 92.0234 7.32812 92.5508 7.32812C93.3359 7.32812 94.0801 7.45703 94.7832 7.71484C95.4863 7.96094 96.1016 8.33008 96.6289 8.82227C97.1562 9.31445 97.5723 9.92383 97.877 10.6504C98.1934 11.3652 98.3516 12.1914 98.3516 13.1289C98.3516 13.9727 98.1758 14.8281 97.8242 15.6953C97.4844 16.5508 96.9746 17.3652 96.2949 18.1387C95.6152 18.9004 94.7715 19.5977 93.7637 20.2305C92.7676 20.8516 91.6191 21.3438 90.3184 21.707C90.3887 22.4336 90.4883 23.0957 90.6172 23.6934C90.7578 24.291 90.9277 24.8008 91.127 25.2227C91.3379 25.6445 91.5781 25.9727 91.8477 26.207C92.1289 26.4414 92.4512 26.5586 92.8145 26.5586C93.0488 26.5469 93.2715 26.5059 93.4824 26.4355C93.6699 26.377 93.8574 26.2832 94.0449 26.1543C94.2441 26.0254 94.4082 25.8379 94.5371 25.5918C94.2324 25.4512 93.998 25.2695 93.834 25.0469C93.6699 24.8242 93.5469 24.6133 93.4648 24.4141C93.3711 24.1797 93.3184 23.9336 93.3066 23.6758C93.3066 23.1133 93.418 22.6562 93.6406 22.3047C93.8633 21.9531 94.127 21.6777 94.4316 21.4785C94.7363 21.2793 95.0469 21.1445 95.3633 21.0742C95.6797 20.9922 95.9316 20.9512 96.1191 20.9512C96.3184 20.9512 96.5586 20.9922 96.8398 21.0742C97.1328 21.1562 97.4141 21.3145 97.6836 21.5488C97.9531 21.7832 98.1816 22.1172 98.3691 22.5508C98.5684 22.9727 98.668 23.5293 98.668 24.2207ZM94.3262 13.1641C94.3262 12.7422 94.2852 12.3438 94.2031 11.9688C94.1328 11.582 94.0215 11.248 93.8691 10.9668C93.7285 10.6855 93.5469 10.4629 93.3242 10.2988C93.1133 10.123 92.8672 10.0352 92.5859 10.0352C92.1055 10.0352 91.7129 10.2578 91.4082 10.7031C91.1035 11.1367 90.8574 11.7168 90.6699 12.4434C90.4824 13.1699 90.3535 14.0078 90.2832 14.957C90.2129 15.9062 90.1777 16.8965 90.1777 17.9277V19.2109C90.7754 18.8945 91.3262 18.5195 91.8301 18.0859C92.3457 17.6523 92.7852 17.1777 93.1484 16.6621C93.5234 16.1348 93.8105 15.5781 94.0098 14.9922C94.2207 14.4062 94.3262 13.7969 94.3262 13.1641Z" fill="#141B26"/>
</svg>
