<svg width="22" height="24" viewBox="0 0 22 24" fill="none" xmlns="http://www.w3.org/2000/svg">
<path d="M10.9483 0C5.79526 0.11638 5.21121 3.88147 6.31034 8.22414C6.13793 8.34052 5.78664 8.75431 5.84483 9.44828C6.01724 10.722 6.53879 11.069 6.82759 11.069C6.94397 11.9375 7.35345 12.8513 7.75862 13.431C8.04741 13.8362 8.15517 14.3578 8.15517 14.8793C8.15517 15.3427 8.16164 15.0474 8.10345 15.569C8.04526 15.7371 7.96336 15.8901 7.86207 16.0345C7.9806 16.4806 8.66379 18.6034 11 18.6034C13.3922 18.6034 14.0345 16.3125 14.1034 16.0345C13.9957 15.8922 13.9095 15.7371 13.8448 15.569C13.7866 14.9332 13.7759 15.2284 13.7759 14.7069C13.7759 14.2435 13.9569 13.847 14.1897 13.5C14.5948 12.9203 14.9871 11.9375 15.1034 11.069C15.4526 11.069 15.9698 10.722 16.0862 9.44828C16.1444 8.75431 15.8707 8.34052 15.6379 8.22414C16.2177 6.60345 17.3082 1.57328 13.6034 1.05172C13.1983 0.357759 12.222 0 10.9483 0ZM15.0172 16.8103C14.5539 18.0431 13.3276 19.7069 11 19.7069C8.67026 19.7069 7.44828 18.0733 6.96552 16.8276C4.67241 18.2392 0 18.6724 0 23.569H22C22 18.5474 17.3491 18.2026 15.0172 16.8103Z" fill="white"/>
</svg>
